{
  "asset": {
    "version": "2.0",
    "generator": "Placeholder"
  },
  "scenes": [
    {
      "nodes": [0]
    }
  ],
  "nodes": [
    {
      "mesh": 0
    }
  ],
  "meshes": [
    {
      "primitives": [
        {
          "attributes": {
            "POSITION": 0
          },
          "indices": 1
        }
      ]
    }
  ],
  "buffers": [
    {
      "uri": "data:application/octet-stream;base64,",
      "byteLength": 6
    }
  ],
  "bufferViews": [
    {
      "buffer": 0,
      "byteOffset": 0,
      "byteLength": 6
    }
  ],
  "accessors": [
    {
      "bufferView": 0,
      "componentType": 5123,
      "count": 3,
      "type": "SCALAR",
      "max": [2],
      "min": [0]
    },
    {
      "bufferView": 0,
      "componentType": 5123,
      "count": 3,
      "type": "SCALAR",
      "max": [2],
      "min": [0]
    }
  ]
} 